<svg width="500" height="500" viewBox="0 0 500 500" fill="none" xmlns="http://www.w3.org/2000/svg">
<path d="M74.5222 215.567C79.2949 161.771 133.619 150.984 159.027 167.795C199.173 65.387 363.69 88.5024 354.004 220.47C475.848 195.814 510.379 360.143 406.504 384.239C356.531 395.867 296.171 357.902 219.246 271.044C143.305 185.307 74.5222 215.567 74.5222 215.567Z" fill="#D43642"/>
<path d="M328.176 396.287C340.529 396.287 152.57 396.287 133.058 396.287C65.8197 396.287 9.6706 338.849 40.8333 281.271C63.293 239.663 129.408 220.05 211.386 315.173C262.482 374.713 309.085 396.287 328.176 396.287Z" fill="#D43642"/>
</svg>
